<svg id="Layer_1" data-name="Layer 1" xmlns="http://www.w3.org/2000/svg" viewBox="0 0 111.52 25.99"><defs><style>.cls-1{fill:#fff;}.cls-2{fill:#f13024;}</style></defs><path class="cls-1" d="M-8-156.23A9.38,9.38,0,0,1-7.25-160a9.48,9.48,0,0,1,2.05-3,9.91,9.91,0,0,1,3-2,9.24,9.24,0,0,1,3.7-.75,9.13,9.13,0,0,1,3.68.74,9.5,9.5,0,0,1,3,2,9.33,9.33,0,0,1,2,3,9.68,9.68,0,0,1,.79,3.68v8.12a1.27,1.27,0,0,1-.37.92,1.25,1.25,0,0,1-.91.38,1.16,1.16,0,0,1-.89-.38,1.35,1.35,0,0,1-.35-.92v-1.72a10.72,10.72,0,0,1-3.11,2.36,8.53,8.53,0,0,1-3.87.9,9.24,9.24,0,0,1-3.7-.75,9.91,9.91,0,0,1-3-2,9.5,9.5,0,0,1-2-3A9.27,9.27,0,0,1-8-156.23Zm2.52,0a6.67,6.67,0,0,0,.55,2.71,7.11,7.11,0,0,0,1.49,2.22,7.16,7.16,0,0,0,2.22,1.51,6.72,6.72,0,0,0,2.76.56,6.72,6.72,0,0,0,2.76-.56,7.16,7.16,0,0,0,2.22-1.51A7.08,7.08,0,0,0,8-153.52a6.83,6.83,0,0,0,.54-2.71A7,7,0,0,0,8-159a6.79,6.79,0,0,0-1.48-2.23,6.86,6.86,0,0,0-2.22-1.5,6.87,6.87,0,0,0-2.76-.55,6.81,6.81,0,0,0-2.74.55,7,7,0,0,0-2.23,1.5A7,7,0,0,0-4.93-159,6.81,6.81,0,0,0-5.48-156.23Z" transform="translate(8 172.41)"/><path class="cls-1" d="M33-148.19a1.18,1.18,0,0,1-.37.88,1.21,1.21,0,0,1-.89.36,1.21,1.21,0,0,1-.89-.36,1.18,1.18,0,0,1-.37-.88v-1.6a10,10,0,0,1-3.11,2.24,9.31,9.31,0,0,1-3.89.82,9.24,9.24,0,0,1-3.7-.75,9.61,9.61,0,0,1-3-2,9.61,9.61,0,0,1-2-3,9.25,9.25,0,0,1-.75-3.71,9.25,9.25,0,0,1,.75-3.71,9.5,9.5,0,0,1,2-3,9.91,9.91,0,0,1,3-2,9.24,9.24,0,0,1,3.7-.75,9.31,9.31,0,0,1,3.89.82,9.58,9.58,0,0,1,3.11,2.24v-8.58a1.15,1.15,0,0,1,.37-.89,1.28,1.28,0,0,1,.89-.35,1.28,1.28,0,0,1,.89.35,1.15,1.15,0,0,1,.37.89Zm-16.52-8.08a7.06,7.06,0,0,0,.54,2.72,7,7,0,0,0,1.49,2.23,7.16,7.16,0,0,0,2.22,1.51,6.67,6.67,0,0,0,2.75.56,6.72,6.72,0,0,0,2.76-.56,7.16,7.16,0,0,0,2.22-1.51,7.12,7.12,0,0,0,1.48-2.23,7.06,7.06,0,0,0,.54-2.72,6.89,6.89,0,0,0-.54-2.73,6.61,6.61,0,0,0-1.48-2.21,6.94,6.94,0,0,0-2.22-1.49,6.87,6.87,0,0,0-2.76-.55,6.81,6.81,0,0,0-2.74.55,6.94,6.94,0,0,0-2.22,1.49A7,7,0,0,0,17-159,6.73,6.73,0,0,0,16.46-156.27Z" transform="translate(8 172.41)"/><path class="cls-1" d="M37.14-171.19a1.42,1.42,0,0,1,1.06-.44,1.51,1.51,0,0,1,1.1.44,1.42,1.42,0,0,1,.46,1.1,1.42,1.42,0,0,1-.46,1,1.52,1.52,0,0,1-1.1.45,1.44,1.44,0,0,1-1.06-.4,1.44,1.44,0,0,1-.44-1A1.53,1.53,0,0,1,37.14-171.19Zm2.34,23a1.25,1.25,0,0,1-.37.91,1.24,1.24,0,0,1-.89.37,1.24,1.24,0,0,1-.89-.37,1.25,1.25,0,0,1-.37-.91v-16.3a1.19,1.19,0,0,1,.38-.89,1.22,1.22,0,0,1,.9-.37,1.18,1.18,0,0,1,.88.37,1.19,1.19,0,0,1,.36.89Z" transform="translate(8 172.41)"/><path class="cls-2" d="M63.8-147.32a.58.58,0,0,1-.19.46.63.63,0,0,1-.45.18.69.69,0,0,1-.47-.18.58.58,0,0,1-.19-.46v-3.86A9.9,9.9,0,0,1,61-149.25a9,9,0,0,1-1.88,1.49,10.06,10.06,0,0,1-2.28,1,9.48,9.48,0,0,1-2.54.34,9.25,9.25,0,0,1-3.71-.75,9.61,9.61,0,0,1-3-2,9.61,9.61,0,0,1-2-3,9.25,9.25,0,0,1-.75-3.71,9.33,9.33,0,0,1,.75-3.72,9.5,9.5,0,0,1,2-3,9.61,9.61,0,0,1,3-2,9.28,9.28,0,0,1,3.71-.74,9.48,9.48,0,0,1,2.54.34,10.06,10.06,0,0,1,2.28,1,8.63,8.63,0,0,1,1.92,1.48,9.9,9.9,0,0,1,1.48,1.93v-11a.58.58,0,0,1,.19-.46.69.69,0,0,1,.47-.18.63.63,0,0,1,.45.18.58.58,0,0,1,.19.46ZM46.06-156a8.09,8.09,0,0,0,.63,3.18,8.27,8.27,0,0,0,1.74,2.62A8.35,8.35,0,0,0,51-148.42a8,8,0,0,0,3.24.66,8.07,8.07,0,0,0,3.25-.66,8.07,8.07,0,0,0,2.61-1.78,8.47,8.47,0,0,0,1.73-2.62A8.09,8.09,0,0,0,62.5-156a8.06,8.06,0,0,0-.63-3.21,8.1,8.1,0,0,0-1.73-2.6,8.1,8.1,0,0,0-2.61-1.75,8.18,8.18,0,0,0-3.24-.64,8.08,8.08,0,0,0-3.22.64,8.1,8.1,0,0,0-2.61,1.75,8.33,8.33,0,0,0-1.75,2.6A7.88,7.88,0,0,0,46.06-156Z" transform="translate(8 172.41)"/><path class="cls-2" d="M68.08-155.36a7.81,7.81,0,0,0,.75,3,8.09,8.09,0,0,0,1.76,2.46,8.38,8.38,0,0,0,2.55,1.6,7.84,7.84,0,0,0,3.06.6,8.34,8.34,0,0,0,1.8-.2,9.34,9.34,0,0,0,1.71-.59,8.27,8.27,0,0,0,1.5-.92,7.35,7.35,0,0,0,1.21-1.22.65.65,0,0,1,.64-.2.51.51,0,0,1,.26.22.63.63,0,0,1,.21.43.62.62,0,0,1-.23.51,9.63,9.63,0,0,1-3,2.34,9,9,0,0,1-4.08.9,9.25,9.25,0,0,1-3.71-.75,9.5,9.5,0,0,1-3-2,9.61,9.61,0,0,1-2-3,9.33,9.33,0,0,1-.75-3.72,9.25,9.25,0,0,1,.75-3.71,9.5,9.5,0,0,1,2-3,9.5,9.5,0,0,1,3-2,9.32,9.32,0,0,1,3.63-.89,9.25,9.25,0,0,1,3.71.75,9.61,9.61,0,0,1,3,2,9.61,9.61,0,0,1,2,3,9,9,0,0,1,.76,3.69.66.66,0,0,1-.17.45.64.64,0,0,1-.45.19Zm16.32-1.12a7.82,7.82,0,0,0-.76-3,8.51,8.51,0,0,0-1.78-2.47,8.18,8.18,0,0,0-2.56-1.66,7.86,7.86,0,0,0-3.1-.61,7.88,7.88,0,0,0-3.11.61,8.16,8.16,0,0,0-2.55,1.67,8.31,8.31,0,0,0-1.76,2.47,8,8,0,0,0-.74,3Z" transform="translate(8 172.41)"/><path class="cls-2" d="M95.26-148.8l7-16.3a.64.64,0,0,1,.35-.37.65.65,0,0,1,.51,0,.64.64,0,0,1,.35.37.7.7,0,0,1,0,.53l-7.6,17.5a1,1,0,0,1-.16.26.54.54,0,0,1-.16.1h-.2a.28.28,0,0,1-.18,0h0a.33.33,0,0,1-.14,0,.9.9,0,0,1-.2-.14l-.12-.22L87.06-164.6a.77.77,0,0,1,0-.52.65.65,0,0,1,.35-.36.6.6,0,0,1,.49,0,.66.66,0,0,1,.37.38Z" transform="translate(8 172.41)"/></svg>